<?xml version="1.0" encoding="utf-8"?>
<!-- Generator: Adobe Illustrator 27.4.0, SVG Export Plug-In . SVG Version: 6.00 Build 0)  -->
<svg version="1.1" id="Layer_1" xmlns="http://www.w3.org/2000/svg" xmlns:xlink="http://www.w3.org/1999/xlink" x="0px" y="0px"
	 viewBox="0 0 1360 1630" style="enable-background:new 0 0 1360 1630;" xml:space="preserve">
<style type="text/css">
	.st0{opacity:0.42;}
	.st1{fill:#003A94;}
	.st2{font-family:'Baloo-Regular';}
	.st3{font-size:369.2858px;}
	.st4{fill:none;stroke:#003A94;stroke-width:90;stroke-linecap:round;stroke-miterlimit:10;}
	.st5{fill:none;}
	.st6{fill:none;stroke:#FFFFFF;stroke-width:44;stroke-linecap:round;stroke-miterlimit:10;}
	.st7{fill:none;stroke:#FFFFFF;stroke-width:65;stroke-linecap:round;stroke-miterlimit:10;}
	.st8{fill:none;stroke:#FF94EE;stroke-width:65;stroke-linecap:round;stroke-miterlimit:10;}
	.st9{fill:none;stroke:#FFFFFF;stroke-width:37;stroke-linecap:round;stroke-miterlimit:10;}
</style>
<g>
	<g class="st0">
		<text transform="matrix(1 0 0 1 160.4885 1494.0383)" class="st1 st2 st3">RAYER</text>
	</g>
	<path class="st4" d="M453.46,287.05c0,0-6.05,134.19,52.11,236.97"/>
	<path class="st4" d="M914.39,287.05c0,0,6.05,134.19-52.11,236.97"/>
	<rect x="675.96" y="1272.4" class="st5" width="3.06" height="0"/>
	<path class="st1" d="M1205.37,730.91c-53.22-294.76-230.06-335.34-316.47-336.63c-86.42-1.29-88.59,19.67-123.41,33.85
		c-34.6,14.1-95.29,16.64-96,16.64c-0.71-0.01-61.4-2.55-96-16.64c-34.82-14.19-37-35.14-123.41-33.85
		c-86.42,1.29-263.25,41.87-316.47,336.63c-50.3,278.59,29.67,374.04,72.23,377.91c59.09,5.37,135.01-155.94,243.66-229.69
		c44.53-30.22,107-82,220-82s175.47,51.78,220,82c108.65,73.75,184.57,235.06,243.66,229.69
		C1175.71,1104.95,1255.67,1009.51,1205.37,730.91z"/>
	<path class="st6" d="M767.47,712.13"/>
	<path class="st6" d="M603.1,709.01"/>
	<path class="st7" d="M523.21,529.07c0,0-0.1,42.11,0.26,76.06"/>
	<path class="st8" d="M345.31,696.72c0,0,42.1,0.67,76.06,0.77"/>
	<path class="st8" d="M934.31,696.72c0,0,42.1,0.67,76.06,0.77"/>
	<path class="st7" d="M820.21,529.07c0,0-0.1,42.11,0.26,76.06"/>
	<path class="st9" d="M691.34,617.73"/>
	<text transform="matrix(1 0 0 1 160.4885 1494.0383)" class="st1 st2 st3">RAYER</text>
	<path class="st1" d="M783.23,1010.77c-0.1,0.12-0.19,0.25-0.28,0.38c-33.95,53.57-167.64-2.21-111.44,87.82
		c10.72,17,15.54,23.42,28.21,39.16c-92.07-64.66-124-110-11.47-133.47c0.13-0.03,0.26-0.08,0.39-0.11
		c113.19-27.31-9.06-65.27-61.52-95.69c-0.11-0.06-0.22-0.12-0.34-0.17c-59.34-27-15.06-102.55,50.94-69.55
		C696.68,848.61,844.32,936.82,783.23,1010.77z"/>
</g>
</svg>
